<?xml version="1.0" encoding="utf-8"?>
<!-- Generator: Adobe Illustrator 27.0.1, SVG Export Plug-In . SVG Version: 6.00 Build 0)  -->
<svg version="1.1" id="Layer_1" xmlns="http://www.w3.org/2000/svg" xmlns:xlink="http://www.w3.org/1999/xlink" x="0px" y="0px"
	 viewBox="0 0 500 500" style="enable-background:new 0 0 500 500;" xml:space="preserve">
<style type="text/css">
	.st0{fill:#E1B878;}
	.st1{fill:#43555E;}
	.st2{fill:#9D7B48;}
	.st3{fill:#070707;}
	.st4{fill:#70848E;}
</style>
<path class="st0" d="M274.58,500c0,0-20.74-132.33-29.71-186.55c-0.21-1.28-0.03-2.63-0.03-3.95c1.82-3.09,4.94-2.26,7.6-2.28
	c20.64-0.11,41.3-0.33,61.93,0.03c17.02,0.29,28.46-7.42,35.44-22.55c0.96-2.08,1.82-4.81,4.84-3.94c2.56,0.74,2.33,3.28,2.31,5.49
	c-0.51,66.27-0.11,132.54-0.21,198.81c-0.01,7.7,0.31,7.98,7.76,8.01c10.66,0.05,21.31,0.09,31.97-0.02
	c5.51-0.06,6.72-0.87,7.27-6.04c2.39-22.5,6.03-44.84,8.59-67.33c1.75-15.37,4.15-30.68,6.11-46.03
	c1.96-15.35,4.41-30.63,5.75-46.05c0.12-1.33,0.26-2.66,0.78-3.9c1.34-3.21,2.31-3.26,5.03-0.31c0.67,1.75,0.75,3.58,0.75,5.41
	c-0.01,43.37,0.17,86.73-0.06,130.06c-0.3,2.15-0.75,4.34,0.68,6.32c1.63,5.05,3.01,10.24,6.3,14.59c0.5,1.56,1.44,2.79,2.84,3.65
	c2.93,3.25,6.55,5.61,10.13,8.05c3.87,2.52,8.2,3.64,12.72,4.22c0.78,0.22,1.44,0.59,1.93,1.24c0.5,1.09-0.44,2.97-0.44,2.97
	L274.58,500z"/>
<path class="st1" d="M449.76,493.02c-11.54-7.16-14.56-15.98-19.31-26.88c-0.76-1.75-1.15-97.33-1.24-143.31
	c-0.97-2.96-1.41-6-0.73-9.06c0.36-1.64,0.61-3.79,3.33-2.84c17.42,24.04,37.89,43.99,68.05,51.03C499.84,406.94,500,500,500,500
	s-26.91-0.05-35,0C462.93,500.01,453.74,495.49,449.76,493.02z"/>
<path class="st2" d="M431.8,310.93c-4.42,3.19,0.13,8.34-2.6,11.9c-3.61-1.97-2.85,1.59-3.01,2.78
	c-6.84,53.72-23.42,174.4-23.42,174.4h-46.22c0,0-1.66-144.14-1.8-211.22c0-2.36,2.68-5.13-0.55-7.28
	c-1.22,2.15-2.48,4.27-3.67,6.44c-7.22,13.2-17.67,21.15-33.34,21.16c-24.12,0.02-48.24,0.25-72.36,0.39
	c-0.56-0.86-1.12-1.71-1.68-2.57c1.64-2.97,4.25-5.1,6.58-7.44c17.13-17.2,34.31-34.35,51.47-51.51c0.94-0.94,1.95-1.82,2.8-2.84
	c0.9-1.08,2.83-1.97,2.02-3.58c-0.74-1.47-2.69-0.84-4.13-0.93c-1.49-0.09-2.99-0.02-4.49-0.02c-25.1-0.01-50.21-0.02-75.31,0
	c-11.24,0.01-19.91-4.29-25.52-14.35c-2.18-3.9-3.24-7.94-3.2-12.38c0.04-3.97,0.35-8-1.2-11.83c-0.16-2.55-0.18-5.05,2.54-6.45
	c2.3,0.08,2.78,2.08,3.68,3.59c5.14,8.65,12.24,13.54,22.78,13.32c15.29-0.32,30.58-0.03,45.87-0.11c5.4-0.03,5.77-0.77,3.1-5.26
	c-6.04-10.14-12.43-20.07-18.75-30.03c-4.46-7.03-10.04-12.4-19.04-12.69c-1.63-0.05-3.59-0.42-3.76-2.53
	c-0.17-2.09,1.46-3.27,3.14-4.11c7.44-3.72,15.04-7.07,22.65-10.41c6.43-2.82,6.19-2.85,5.37-9.94c-0.61-5.24-1.21-10.63,1.89-15.49
	c0.47-0.31,0.98-0.43,1.53-0.38c2.56,1.13,2.22,3.46,2.19,5.57c-0.06,4.82,0.03,9.63,0.69,14.41c1.42,10.21,13.02,20.52,23.4,20.83
	c4.98,0.15,9.96-0.09,14.93,0.21c1.08,0,2.16-0.03,3.23,0.14c1.37,0.28,2.71-0.06,4.07-0.23c10.8-0.34,21.59-0.59,32.36,0.1
	c1.66,0.07,2.6,1.83,4.29,1.89C376.16,213.31,403.98,262.12,431.8,310.93z"/>
<path class="st3" d="M193.04,201.79c3.19,3.21,1.67,7.27,1.71,10.92c0.15,15.5,10.31,26.17,25.8,26.24
	c28.27,0.12,56.55,0.01,84.82,0.06c1.38,0,2.76,0.56,4.14,0.85c-0.34,1.03-0.39,2.36-1.07,3.05
	c-20.95,21.14-41.95,42.23-62.99,63.29c-0.5,0.5-1.52,0.5-2.29,0.74c-1.28-6.66-2.66-13.31-3.84-20
	c-2.76-15.61-11.54-24.15-27.85-24.1c-24.6,0.08-49.2,0.42-73.8,0.08c-18.42-0.26-32.08-9.17-41.59-24.9
	c-4.91-8.13-4.76-14.03,5.48-17.24c4.24-1.33,8.26-3.38,12.38-5.1c2.83,3.33,1.46,7.31,1.54,10.99c0.21,9.66,0.09,9.7,8.6,5.69
	c18.94-8.91,38.08-17.39,56.82-26.74C184.66,203.74,188.44,201.26,193.04,201.79z"/>
<path class="st0" d="M261.9,122.19c-0.6,6.74-0.85,13.27,0.49,20.18c1.12,5.76-6.64,4.98-10.13,7.57c-1.8,1.34-4.31,1.67-6.38,2.69
	c-12.96,6.45-12.42,5.81-3.24,13.17c14.73,11.81,20.94,29.99,31.47,44.97c1.18,1.68-0.13,3.15-1.85,3.07
	c-20.84-0.96-41.91,2.96-62.49-2.08c-7.67-1.88-11.63-8.87-14.68-15.89c-4.01-2.82-2.43-7.11-2.84-10.88
	c-0.24-2.16,0.46-4.23,0.71-6.34c0.48-2.83,1.71-5.79,1.3-8.49c-2.97-19.59,10.75-25.35,25-30.82c4.5-1.73,9.63-2.69,11.24-8.35
	c2.54,0.64,4.85,0.05,7.19-1.01c6.2-2.79,12.44-5.46,18.47-8.64C258.17,120.3,260.44,118.85,261.9,122.19z"/>
<path class="st3" d="M307.94,163.75c-0.85-0.06-1.7-0.12-2.55-0.18c-9.24-3.37-14.85-10.27-18.43-19.09
	c-1.76-4.34-2.35-9-3.27-13.56c-6.33-31.29-12.26-62.67-18.88-93.9c-0.42-1.96-0.13-4-0.74-5.93c-0.11-3.34-0.22-6.67-0.33-10.01
	c0.42-0.97,1.07-1.44,2.15-0.99c27.26,47.95,54.51,95.91,81.77,143.86c-0.45,0.63-1.04,0.73-1.72,0.45
	c-12.02-0.12-24.04-0.23-36.06-0.35C309.22,164.03,308.57,163.93,307.94,163.75z"/>
<path class="st4" d="M261.9,122.19c-10.21,0.33-17.64,7.75-26.9,10.63c-2.83,0.88-3.85,0.99-4.49-1.82
	c0.16-33.03,0.32-66.06,0.49-99.09c0.3-0.27,0.64-0.33,1.01-0.18c8.37,14.33,16.7,28.67,25.15,42.95c0.74,1.25,2.28,2.04,3.44,3.04
	c0.55-1.45,1.48-2.87,1.6-4.36c0.47-5.73,0.67-11.47,0.98-17.21c3.03,0.97,2.47,3.67,2.54,5.82c0.28,7.98-0.55,15.84-1.53,23.79
	c-1.24,10.02-0.44,20.26-0.26,30.41c0.04,1.95,0.65,4.01-0.88,5.73C262.66,122,262.28,122.1,261.9,122.19z"/>
<path class="st1" d="M263.05,121.91c-3.49-19.89,0.94-39.66,0.88-59.49c-0.01-2.09-0.49-4.18-0.76-6.27c0.3-8.35,0.6-16.7,0.9-25.05
	c5.67,11.65,6.04,24.58,8.73,36.93c4.97,22.83,9.41,45.78,13.55,68.78c2.19,12.16,9.96,19.8,19.04,26.76
	c-14.11,2.1-26.97,0.79-36.93-11.36c-6.08-7.41-3.87-15.89-4.77-24.02C263.46,126.1,263.26,124,263.05,121.91z"/>
<path class="st4" d="M192.96,178.65c0.71,5.74,1.43,11.48,2.14,17.22c-0.68,1.97-1.37,3.94-2.05,5.92
	c-25.13,11.88-50.25,23.8-75.43,35.6c-3.13,1.47-3.68-0.9-3.68-3.34c-0.01-6.13,0.01-12.26,0.01-18.39
	C140.28,203.33,166.62,190.99,192.96,178.65z"/>
<path class="st1" d="M265.9,20.1c-0.72,0.33-1.43,0.66-2.15,0.99c-0.14-0.64-0.28-1.28-0.42-1.91c0.56-0.7,1.28-0.81,2.09-0.53
	C265.57,19.13,265.73,19.62,265.9,20.1z"/>
<path class="st4" d="M265.41,18.65c-0.7,0.18-1.39,0.35-2.09,0.53c0.11-0.56,0.21-1.12,0.32-1.68
	C264.23,17.88,264.82,18.26,265.41,18.65z"/>
<path class="st0" d="M232,31.73c-0.34,0.06-0.68,0.13-1.02,0.19c-0.08-0.36-0.16-0.71-0.24-1.06
	C231.16,31.14,231.58,31.43,232,31.73z"/>
<path class="st1" d="M345.94,164.41c0.57-0.15,1.15-0.3,1.72-0.45c0.23,0.18,0.45,0.36,0.68,0.54
	C347.5,165.45,346.66,166.64,345.94,164.41z"/>
<circle class="st1" cx="220.62" cy="181.66" r="12.5"/>
<path class="st1" d="M307.94,163.75c0.65,0.1,1.3,0.21,1.94,0.31C309.23,163.96,308.59,163.85,307.94,163.75z"/>
<path class="st3" d="M208.91,186.16c-0.14-1-0.28-2-0.41-2.99c-0.54-1.41-0.58-2.81,0.15-4.18c0.11-0.39,0.23-0.79,0.34-1.18
	c2.81-1.24,4.15,1.28,6.02,2.39c1.98,1.18,4,1.74,6.05,0.38c1.87-1.24,2.23-3.11,1.84-5.26c-0.29-1.61-2.33-3.48-0.01-4.84
	c2.06-1.21,3.72,0.46,5.32,1.62c0.27,0.19,0.54,0.38,0.82,0.55c0.33,0.25,0.67,0.5,1,0.75c3.76,4.9,4.07,10.09,1.3,15.54
	c-1.11,1.15-2.22,2.3-3.33,3.45c-2.75,1.43-5.41,3.21-8.78,2.3c-0.68-0.19-1.35-0.37-2.03-0.56c-0.85-0.05-1.55-0.42-2.18-0.98
	l-0.19-0.12C212.49,191.05,210.26,188.98,208.91,186.16z"/>
<path class="st1" d="M215,194.17c0.73,0.33,1.45,0.65,2.18,0.98C216.46,194.82,215.73,194.49,215,194.17z"/>
</svg>
